<mxfile host="65bd71144e">
    <diagram id="6OLUEpPrqN3F6xuIstuM" name="第 1 页">
        <mxGraphModel dx="169" dy="479" grid="0" gridSize="10" guides="1" tooltips="1" connect="1" arrows="1" fold="1" page="0" pageScale="1" pageWidth="827" pageHeight="1169" background="#FFFFFF" math="0" shadow="0">
            <root>
                <mxCell id="0"/>
                <mxCell id="1" parent="0"/>
                <mxCell id="17" value="" style="endArrow=none;html=1;fontSize=25;fontColor=#000000;strokeWidth=2;strokeColor=#000000;exitX=0.5;exitY=0;exitDx=0;exitDy=0;entryX=0.5;entryY=1;entryDx=0;entryDy=0;" edge="1" parent="1" source="24" target="25">
                    <mxGeometry width="50" height="50" relative="1" as="geometry">
                        <mxPoint x="869.5" y="303" as="sourcePoint"/>
                        <mxPoint x="870.5" y="268" as="targetPoint"/>
                    </mxGeometry>
                </mxCell>
                <mxCell id="18" value="" style="endArrow=none;html=1;fontSize=25;fontColor=#000000;strokeWidth=2;strokeColor=#000000;exitX=0;exitY=0.5;exitDx=0;exitDy=0;entryX=1;entryY=0.5;entryDx=0;entryDy=0;" edge="1" parent="1" source="26" target="24">
                    <mxGeometry width="50" height="50" relative="1" as="geometry">
                        <mxPoint x="900.5" y="133" as="sourcePoint"/>
                        <mxPoint x="900.5" y="75" as="targetPoint"/>
                    </mxGeometry>
                </mxCell>
                <mxCell id="19" value="" style="endArrow=none;html=1;fontSize=25;fontColor=#000000;strokeWidth=2;strokeColor=#000000;exitX=0;exitY=0.5;exitDx=0;exitDy=0;entryX=1;entryY=0.5;entryDx=0;entryDy=0;" edge="1" parent="1" source="27" target="24">
                    <mxGeometry width="50" height="50" relative="1" as="geometry">
                        <mxPoint x="904.5" y="133" as="sourcePoint"/>
                        <mxPoint x="904.5" y="75" as="targetPoint"/>
                    </mxGeometry>
                </mxCell>
                <mxCell id="20" value="" style="endArrow=none;html=1;fontSize=25;fontColor=#000000;strokeWidth=2;strokeColor=#000000;entryX=0;entryY=0.5;entryDx=0;entryDy=0;exitX=1;exitY=0.5;exitDx=0;exitDy=0;" edge="1" parent="1" source="24" target="28">
                    <mxGeometry width="50" height="50" relative="1" as="geometry">
                        <mxPoint x="900.5" y="77" as="sourcePoint"/>
                        <mxPoint x="900.5" y="19" as="targetPoint"/>
                    </mxGeometry>
                </mxCell>
                <mxCell id="21" value="" style="endArrow=none;html=1;fontSize=25;fontColor=#000000;strokeWidth=2;strokeColor=#000000;exitX=0;exitY=0.5;exitDx=0;exitDy=0;entryX=1;entryY=0.5;entryDx=0;entryDy=0;" edge="1" parent="1" source="29" target="24">
                    <mxGeometry width="50" height="50" relative="1" as="geometry">
                        <mxPoint x="986.5" y="431.5" as="sourcePoint"/>
                        <mxPoint x="900" y="18" as="targetPoint"/>
                    </mxGeometry>
                </mxCell>
                <mxCell id="22" value="" style="endArrow=none;html=1;fontSize=25;fontColor=#000000;strokeWidth=2;strokeColor=#000000;entryX=0;entryY=0.5;entryDx=0;entryDy=0;exitX=1;exitY=0.5;exitDx=0;exitDy=0;" edge="1" parent="1" source="30" target="24">
                    <mxGeometry width="50" height="50" relative="1" as="geometry">
                        <mxPoint x="758.5" y="116" as="sourcePoint"/>
                        <mxPoint x="814.5" y="85" as="targetPoint"/>
                    </mxGeometry>
                </mxCell>
                <mxCell id="23" value="" style="endArrow=none;html=1;fontSize=25;fontColor=#000000;strokeWidth=2;strokeColor=#000000;entryX=0;entryY=0.5;entryDx=0;entryDy=0;exitX=1;exitY=0.5;exitDx=0;exitDy=0;" edge="1" parent="1" source="31" target="24">
                    <mxGeometry width="50" height="50" relative="1" as="geometry">
                        <mxPoint x="860.5" y="179" as="sourcePoint"/>
                        <mxPoint x="856.5" y="138" as="targetPoint"/>
                    </mxGeometry>
                </mxCell>
                <mxCell id="24" value="&lt;b&gt;&lt;font style=&quot;font-size: 25px&quot;&gt;用户&lt;/font&gt;&lt;/b&gt;" style="rounded=0;whiteSpace=wrap;html=1;labelBackgroundColor=#CCFFFF;fontSize=25;fontColor=#000000;fillColor=#CCFFFF;" vertex="1" parent="1">
                    <mxGeometry x="820.5" y="312" width="99" height="49" as="geometry"/>
                </mxCell>
                <mxCell id="25" value="&lt;font color=&quot;#000000&quot; style=&quot;font-size: 20px&quot;&gt;用户ID&lt;/font&gt;" style="ellipse;whiteSpace=wrap;html=1;fontSize=25;fillColor=#99FFCC;" vertex="1" parent="1">
                    <mxGeometry x="812" y="198" width="116" height="53" as="geometry"/>
                </mxCell>
                <mxCell id="26" value="&lt;font color=&quot;#000000&quot; style=&quot;font-size: 20px&quot;&gt;联系方式&lt;/font&gt;" style="ellipse;whiteSpace=wrap;html=1;fontSize=25;fillColor=#99FFCC;" vertex="1" parent="1">
                    <mxGeometry x="986.5" y="339" width="116" height="53" as="geometry"/>
                </mxCell>
                <mxCell id="27" value="&lt;font color=&quot;#000000&quot; style=&quot;font-size: 20px&quot;&gt;年龄&lt;/font&gt;" style="ellipse;whiteSpace=wrap;html=1;fontSize=25;fillColor=#99FFCC;" vertex="1" parent="1">
                    <mxGeometry x="986.5" y="272" width="116" height="53" as="geometry"/>
                </mxCell>
                <mxCell id="28" value="&lt;font color=&quot;#000000&quot; style=&quot;font-size: 20px&quot;&gt;姓名&lt;/font&gt;" style="ellipse;whiteSpace=wrap;html=1;fontSize=25;fillColor=#99FFCC;" vertex="1" parent="1">
                    <mxGeometry x="986.5" y="205" width="116" height="53" as="geometry"/>
                </mxCell>
                <mxCell id="29" value="&lt;font color=&quot;#000000&quot; style=&quot;font-size: 20px&quot;&gt;头像&lt;/font&gt;" style="ellipse;whiteSpace=wrap;html=1;fontSize=25;fillColor=#99FFCC;" vertex="1" parent="1">
                    <mxGeometry x="986.5" y="408" width="116" height="53" as="geometry"/>
                </mxCell>
                <mxCell id="30" value="&lt;font color=&quot;#000000&quot; style=&quot;font-size: 20px&quot;&gt;密码&lt;/font&gt;" style="ellipse;whiteSpace=wrap;html=1;fontSize=25;fillColor=#99FFCC;" vertex="1" parent="1">
                    <mxGeometry x="637.5" y="352" width="116" height="53" as="geometry"/>
                </mxCell>
                <mxCell id="31" value="&lt;font color=&quot;#000000&quot; style=&quot;font-size: 20px&quot;&gt;用户名&lt;/font&gt;" style="ellipse;whiteSpace=wrap;html=1;fontSize=25;fillColor=#99FFCC;" vertex="1" parent="1">
                    <mxGeometry x="637.5" y="259" width="116" height="53" as="geometry"/>
                </mxCell>
            </root>
        </mxGraphModel>
    </diagram>
</mxfile>